<svg xmlns="http://www.w3.org/2000/svg" viewBox="0 0 25 25" height="25" width="25"><title>construction.svg</title><rect fill="none" x="0" y="0" width="25" height="25"></rect><rect x="0" y="0" width="25" height="25" rx="12.5" ry="12.5" fill="#000"></rect><path fill="#ffffff" transform="translate(5 5)" d="M13.5,12h-1.8L8.2,1.5C8,0.8,7,0.8,6.8,1.5L3.3,12H1.5C1.2,12,1,12.2,1,12.5v1C1,13.8,1.2,14,1.5,14h12
	c0.3,0,0.5-0.2,0.5-0.5v-1C14,12.2,13.8,12,13.5,12z M7,4H8l0.7,2H6.4L7,4z M5.7,8h3.6l0.7,2H5L5.7,8z"></path></svg>