<svg xmlns="http://www.w3.org/2000/svg" viewBox="0 0 25 25" height="25" width="25"><title>entrance.svg</title><rect fill="none" x="0" y="0" width="25" height="25"></rect><rect x="0" y="0" width="25" height="25" rx="12.5" ry="12.5" fill="#000"></rect><path fill="#ffffff" transform="translate(5 5)" d="M7,6.5v-1a1,1,0,0,0-2,0v3ZM5,3A1,1,0,1,1,6,4,1,1,0,0,1,5,3m9,3h0a1,1,0,0,1-1,1H11.42a1,1,0,0,0-.71.29L5.29,12.71a1,1,0,0,1-.7.29H2a1,1,0,0,1-1-1H1a1,1,0,0,1,1-1H3.59a1,1,0,0,0,.7-.29L9.71,5.29A1,1,0,0,1,10.42,5H13A1,1,0,0,1,14,6Z"></path></svg>