<svg width="1612" height="277" viewBox="0 0 1612 277" fill="none" xmlns="http://www.w3.org/2000/svg">
<g clip-path="url(#clip0_1267_90)">
<path d="M1391.99 217.75V61.75H1427.13V88.2578H1428.96C1432.21 79.3203 1437.59 72.3463 1445.11 67.3359C1452.62 62.2578 1461.59 59.7188 1472.02 59.7188C1482.58 59.7188 1491.49 62.2917 1498.73 67.4375C1506.04 72.5156 1511.19 79.4557 1514.17 88.2578H1515.79C1519.25 79.5911 1525.07 72.6849 1533.26 67.5391C1541.52 62.3255 1551.31 59.7188 1562.62 59.7188C1576.97 59.7188 1588.68 64.2552 1597.76 73.3281C1606.83 82.401 1611.37 95.638 1611.37 113.039V217.75H1574.5V118.727C1574.5 109.044 1571.93 101.969 1566.78 97.5C1561.63 92.9635 1555.34 90.6953 1547.89 90.6953C1539.02 90.6953 1532.08 93.4713 1527.07 99.0234C1522.13 104.508 1519.65 111.651 1519.65 120.453V217.75H1483.6V117.203C1483.6 109.146 1481.16 102.714 1476.29 97.9062C1471.48 93.099 1465.18 90.6953 1457.4 90.6953C1452.12 90.6953 1447.31 92.0495 1442.97 94.7578C1438.64 97.3984 1435.19 101.156 1432.62 106.031C1430.04 110.839 1428.76 116.458 1428.76 122.891V217.75H1391.99Z" fill="#44403C"/>
<path d="M1278.6 217.75V61.75H1314.24V87.75H1315.87C1318.71 78.7448 1323.59 71.8047 1330.49 66.9297C1337.47 61.987 1345.42 59.5156 1354.36 59.5156C1356.39 59.5156 1358.66 59.6172 1361.17 59.8203C1363.74 59.9557 1365.87 60.1927 1367.56 60.5312V94.3516C1366.01 93.8099 1363.54 93.3359 1360.15 92.9297C1356.83 92.4557 1353.62 92.2188 1350.5 92.2188C1343.8 92.2188 1337.77 93.6745 1332.42 96.5859C1327.14 99.4297 1322.98 103.391 1319.93 108.469C1316.88 113.547 1315.36 119.404 1315.36 126.039V217.75H1278.6Z" fill="#44403C"/>
<path d="M1172.64 220.797C1157.41 220.797 1144.2 217.445 1133.03 210.742C1121.86 204.039 1113.19 194.661 1107.03 182.609C1100.94 170.557 1097.89 156.474 1097.89 140.359C1097.89 124.245 1100.94 110.128 1107.03 98.0078C1113.19 85.888 1121.86 76.4766 1133.03 69.7734C1144.2 63.0703 1157.41 59.7188 1172.64 59.7188C1187.87 59.7188 1201.08 63.0703 1212.25 69.7734C1223.42 76.4766 1232.05 85.888 1238.15 98.0078C1244.31 110.128 1247.39 124.245 1247.39 140.359C1247.39 156.474 1244.31 170.557 1238.15 182.609C1232.05 194.661 1223.42 204.039 1212.25 210.742C1201.08 217.445 1187.87 220.797 1172.64 220.797ZM1172.84 191.344C1181.1 191.344 1188.01 189.076 1193.56 184.539C1199.11 179.935 1203.24 173.773 1205.95 166.055C1208.73 158.336 1210.12 149.737 1210.12 140.258C1210.12 130.711 1208.73 122.078 1205.95 114.359C1203.24 106.573 1199.11 100.378 1193.56 95.7734C1188.01 91.1693 1181.1 88.8672 1172.84 88.8672C1164.38 88.8672 1157.34 91.1693 1151.72 95.7734C1146.17 100.378 1142 106.573 1139.23 114.359C1136.52 122.078 1135.16 130.711 1135.16 140.258C1135.16 149.737 1136.52 158.336 1139.23 166.055C1142 173.773 1146.17 179.935 1151.72 184.539C1157.34 189.076 1164.38 191.344 1172.84 191.344Z" fill="#44403C"/>
<path d="M1081.67 61.75V90.1875H989.447V61.75H1081.67ZM1012.5 217.75V47.0234C1012.5 36.5287 1014.67 27.7943 1019 20.8203C1023.4 13.8464 1029.29 8.63282 1036.67 5.1797C1044.05 1.72657 1052.25 0 1061.25 0C1067.62 0 1073.27 0.50782 1078.21 1.52345C1083.16 2.53907 1086.81 3.45313 1089.18 4.26564L1081.87 32.7031C1080.31 32.2292 1078.35 31.7552 1075.98 31.2812C1073.61 30.7396 1070.97 30.4688 1068.06 30.4688C1061.22 30.4688 1056.38 32.1276 1053.53 35.4453C1050.76 38.6953 1049.37 43.3672 1049.37 49.4609V217.75H1012.5Z" fill="#44403C"/>
<path d="M823.9 276.25V61.75H860.057V87.5469H862.189C864.085 83.7552 866.76 79.7266 870.213 75.4609C873.666 71.1276 878.338 67.4375 884.229 64.3906C890.119 61.276 897.635 59.7188 906.775 59.7188C918.827 59.7188 929.695 62.7995 939.377 68.9609C949.127 75.0547 956.846 84.0938 962.533 96.0781C968.288 107.995 971.166 122.62 971.166 139.953C971.166 157.083 968.356 171.641 962.736 183.625C957.117 195.609 949.465 204.75 939.783 211.047C930.101 217.344 919.132 220.492 906.877 220.492C897.939 220.492 890.525 219.003 884.635 216.023C878.744 213.044 874.005 209.456 870.416 205.258C866.895 200.992 864.153 196.964 862.189 193.172H860.666V276.25H823.9ZM859.955 139.75C859.955 149.839 861.377 158.674 864.221 166.258C867.132 173.841 871.296 179.766 876.713 184.031C882.197 188.229 888.833 190.328 896.619 190.328C904.744 190.328 911.549 188.161 917.033 183.828C922.518 179.427 926.648 173.435 929.424 165.852C932.268 158.201 933.689 149.5 933.689 139.75C933.689 130.068 932.301 121.469 929.525 113.953C926.749 106.438 922.619 100.547 917.135 96.2812C911.65 92.0156 904.812 89.8828 896.619 89.8828C888.765 89.8828 882.096 91.9479 876.611 96.0781C871.127 100.208 866.963 105.997 864.119 113.445C861.343 120.893 859.955 129.661 859.955 139.75Z" fill="#44403C"/>
<path d="M704.564 220.898C694.679 220.898 685.775 219.138 677.854 215.617C669.999 212.029 663.77 206.747 659.166 199.773C654.63 192.799 652.361 184.201 652.361 173.977C652.361 165.174 653.986 157.896 657.236 152.141C660.486 146.385 664.921 141.781 670.541 138.328C676.161 134.875 682.492 132.268 689.533 130.508C696.643 128.68 703.989 127.359 711.572 126.547C720.713 125.599 728.127 124.753 733.814 124.008C739.502 123.195 743.632 121.977 746.205 120.352C748.846 118.659 750.166 116.052 750.166 112.531V111.922C750.166 104.271 747.898 98.3464 743.361 94.1484C738.825 89.9505 732.291 87.8516 723.76 87.8516C714.755 87.8516 707.611 89.8151 702.33 93.7422C697.117 97.6693 693.596 102.307 691.768 107.656L657.439 102.781C660.148 93.3021 664.617 85.3802 670.846 79.0156C677.075 72.5833 684.692 67.776 693.697 64.5938C702.702 61.3438 712.656 59.7188 723.557 59.7188C731.072 59.7188 738.554 60.599 746.002 62.3594C753.45 64.1198 760.255 67.0312 766.416 71.0937C772.577 75.0885 777.52 80.5391 781.244 87.4453C785.036 94.3516 786.932 102.984 786.932 113.344V217.75H751.588V196.32H750.369C748.135 200.654 744.986 204.716 740.924 208.508C736.929 212.232 731.885 215.245 725.791 217.547C719.765 219.781 712.689 220.898 704.564 220.898ZM714.111 193.883C721.492 193.883 727.89 192.427 733.307 189.516C738.723 186.536 742.887 182.609 745.799 177.734C748.778 172.859 750.268 167.544 750.268 161.789V143.406C749.117 144.354 747.153 145.234 744.377 146.047C741.669 146.859 738.622 147.57 735.236 148.18C731.851 148.789 728.499 149.331 725.182 149.805C721.864 150.279 718.986 150.685 716.549 151.023C711.064 151.768 706.156 152.987 701.822 154.68C697.489 156.372 694.07 158.742 691.564 161.789C689.059 164.768 687.807 168.628 687.807 173.367C687.807 180.138 690.278 185.25 695.221 188.703C700.163 192.156 706.46 193.883 714.111 193.883Z" fill="#44403C"/>
<path d="M403 217.75V61.75H438.141V88.2578H439.969C443.219 79.3203 448.602 72.3463 456.117 67.3359C463.633 62.2578 472.604 59.7188 483.031 59.7188C493.594 59.7188 502.497 62.2917 509.742 67.4375C517.055 72.5156 522.201 79.4557 525.18 88.2578H526.805C530.258 79.5911 536.081 72.6849 544.273 67.5391C552.534 62.3255 562.318 59.7188 573.625 59.7188C587.979 59.7188 599.693 64.2552 608.766 73.3281C617.839 82.401 622.375 95.638 622.375 113.039V217.75H585.508V118.727C585.508 109.044 582.935 101.969 577.789 97.5C572.643 92.9635 566.346 90.6953 558.898 90.6953C550.029 90.6953 543.089 93.4713 538.078 99.0234C533.135 104.508 530.664 111.651 530.664 120.453V217.75H494.609V117.203C494.609 109.146 492.172 102.714 487.297 97.9062C482.49 93.099 476.193 90.6953 468.406 90.6953C463.125 90.6953 458.318 92.0495 453.984 94.7578C449.651 97.3984 446.198 101.156 443.625 106.031C441.052 110.839 439.766 116.458 439.766 122.891V217.75H403Z" fill="#44403C"/>
<path d="M53.0307 223.088L1.8667e-05 276.125L0 62.5738L53.0307 9.53679C65.5782 -3.01222 85.9217 -3.01224 98.4693 9.53677L138.711 49.7833C145.774 56.8473 157.226 56.8473 164.289 49.7833L204.531 9.53678C217.078 -3.01223 237.422 -3.01225 249.969 9.53676L303 62.5738L303 276.125L249.969 223.088C237.422 210.539 217.078 210.539 204.531 223.088L164.289 263.334C157.226 270.398 145.774 270.398 138.711 263.334L98.4693 223.088C85.9218 210.539 65.5782 210.539 53.0307 223.088Z" fill="#44403C"/>
<path d="M151.5 268.632C146.871 268.632 142.243 266.866 138.711 263.334L98.4693 223.088C92.1955 216.813 83.9725 213.676 75.7497 213.676L75.7497 0.125C83.9724 0.124994 92.1955 3.26226 98.4693 9.53677L138.711 49.7833C142.243 53.3153 146.871 55.0813 151.5 55.0813L151.5 268.632Z" fill="#A3A3A3"/>
<path d="M227.249 0.125163C235.472 0.125034 243.695 3.26213 249.969 9.53676L303 62.5738L303 276.125L249.969 223.088C243.695 216.813 235.472 213.676 227.249 213.676L227.249 0.125163Z" fill="#A3A3A3"/>
</g>
<defs>
<clipPath id="clip0_1267_90">
<rect width="1611.37" height="276.25" fill="white" transform="matrix(-1 0 0 1 1611.37 0)"/>
</clipPath>
</defs>
</svg>
