<svg width="512" height="466" viewBox="0 0 512 466" fill="none" xmlns="http://www.w3.org/2000/svg">
<path d="M90.2294 376.47L0.908235 465.791L0.908203 106.144L90.2293 16.8228C111.363 -4.3113 145.629 -4.31134 166.763 16.8228L234.543 84.6031C246.44 96.4997 265.728 96.4997 277.625 84.6031L345.405 16.8228C366.539 -4.31133 400.804 -4.31136 421.938 16.8228L511.26 106.144L511.26 465.791L421.938 376.47C400.804 355.336 366.539 355.336 345.405 376.47L277.625 444.25C265.728 456.147 246.44 456.147 234.543 444.25L166.763 376.47C145.629 355.336 111.363 355.336 90.2294 376.47Z" fill="#44403C"/>
<path d="M256.083 453.173C248.287 453.173 240.491 450.199 234.543 444.25L166.763 376.47C156.196 365.903 142.345 360.619 128.496 360.619L128.496 0.972168C142.345 0.972158 156.196 6.25572 166.763 16.8228L234.543 84.6031C240.491 90.5514 248.287 93.5255 256.083 93.5255L256.083 453.173Z" fill="#A3A3A3"/>
<path d="M383.67 0.972443C397.52 0.972224 411.371 6.25548 421.938 16.8228L511.26 106.144L511.26 465.791L421.938 376.47C411.371 365.903 397.52 360.619 383.67 360.62L383.67 0.972443Z" fill="#A3A3A3"/>
</svg>
